<svg xmlns="http://www.w3.org/2000/svg" viewBox="0 0 220 260" role="img" aria-labelledby="title desc">
  <title id="title">G&P Escudo</title>
  <desc id="desc">Escudo azul com engrenagem e organograma branco</desc>
  <defs>
    <linearGradient id="g" x1="0%" y1="0%" x2="0%" y2="100%">
      <stop offset="0%" stop-color="#0F2E4E" stop-opacity="0.98" />
      <stop offset="100%" stop-color="#0F2E4E" />
    </linearGradient>
  </defs>
  <path fill="url(#g)" d="M110 258c-40-19-83-49-83-119V32.5C56 30 83 24 110 6c27 18 54 24 83 26.5V139c0 70-43 100-83 119Z"/>
  <g fill="#FFFFFF" transform="translate(110 125)">
    <path d="M0-70a70 70 0 0 1 68 55l-17 4.4a52 52 0 0 0-102 0L-68-15A70 70 0 0 1 0-70Z"/>
    <path d="M0-50a50 50 0 1 1 0 100 50 50 0 0 1 0-100Zm0 12a8 8 0 0 0-8 8v12h-12a8 8 0 0 0-8 8v10a8 8 0 0 0 8 8h12v12a8 8 0 0 0 8 8h10a8 8 0 0 0 8-8v-12h12a8 8 0 0 0 8-8v-10a8 8 0 0 0-8-8h-12v-12a8 8 0 0 0-8-8H0Z"/>
    <rect x="-30" y="4" width="24" height="14" rx="4" />
    <rect x="6" y="4" width="24" height="14" rx="4" />
    <rect x="-12" y="-24" width="24" height="14" rx="4" />
    <rect x="-6" y="-38" width="12" height="14" rx="4" />
    <path d="M0-24v12M-18 18v-14M18 18v-14" stroke="#0F2E4E" stroke-width="4" stroke-linecap="round"/>
  </g>
</svg>
